Simulation
nRows=42
nColumns=15
endheader
time  TH_x TH_y TH_z SC_y  SC_z  SC_x  AC_y  AC_z  AC_x  GH_y  GH_z  GH_yy  EL_x  PS_y
0.0  0.000000  0.000000  0.000000  -28.371422991405428  3.172529192662648  -0.9377803608368765  51.65616308651359  4.315722914351231  -1.4351381459033863  132.41118061911143  4.587770818303627  -83.63572941805539  20.19831351715752  120.000000
0.04016479400749064  0.000000  0.000000  0.000000  -28.37362840884197  3.1560143989165304  -0.9920653198459379  51.651451425187865  4.3753128788252535  -1.4165005320109052  130.58537968335665  4.485924116994993  -81.95822048813577  20.115091199425446  120.000000
0.08032958801498127  0.000000  0.000000  0.000000  -28.375352115990264  3.114172676640078  -1.1290002828409638  51.626892888015576  4.544668443328446  -1.3761278773421375  124.64912169092396  4.1932105222158  -76.47322119861589  19.871798172248603  120.000000
0.12049438202247191  0.000000  0.000000  0.000000  -28.375364891808687  3.0633276343287412  -1.31799208872795  51.56603976188288  4.805116796393346  -1.3340909463755843  113.15013800983162  3.7953893863811654  -65.74035066346671  19.49031652767572  120.000000
0.16065917602996255  0.000000  0.000000  0.000000  -28.37546308262528  3.0122190331134764  -1.5497273097677886  51.45912171749946  5.1375216256682705  -1.2976478394353177  94.31408395378233  3.511067068563963  -47.98516783313058  19.0000168899888  120.000000
0.20082397003745317  0.000000  0.000000  0.000000  -28.38098794566716  2.963914755602315  -1.8190990410462813  51.30329272847608  5.524983417959259  -1.269326293565918  69.84510902289628  3.6853428188989614  -24.900340521135295  18.428407023955796  120.000000
0.24098876404494382  0.000000  0.000000  0.000000  -28.411125595864853  2.922368290916363  -2.1239181635837867  51.102738957306066  5.95427340555324  -1.244866779892212  47.43884848814774  4.550057866573497  -4.161334438551268  17.801710193477415  120.000000
0.28115355805243447  0.000000  0.000000  0.000000  -28.489031951510256  2.890599143489843  -2.458429904021905  50.86521629796817  6.413897438968738  -1.2167129440700084  31.717533736663277  6.027107261997172  9.640897272576941  17.142682685453924  120.000000
0.3213183520599251  0.000000  0.000000  0.000000  -28.640782214272253  2.8727711529556297  -2.813039523162615  50.60398119167071  6.895540637239981  -1.1781144612930028  21.514800187460747  7.940226317233888  17.710264987325612  16.47133303816042  120.000000
0.3614831460674157  0.000000  0.000000  0.000000  -28.886113125636946  2.8731483850543666  -3.1735859613122264  50.333831355214755  7.394385735592288  -1.1234973856654116  14.717105237942157  10.15926622527462  22.20147970777567  15.803646415756692  120.000000
0.40164794007490634  0.000000  0.000000  0.000000  -29.232020628332354  2.896551474224738  -3.522448040638563  50.067526047915266  7.907120300874188  -1.0495959216793629  9.922749583936927  12.599194121820547  24.559688579528245  15.15129911869207  120.000000
0.441812734082397  0.000000  0.000000  0.000000  -29.6789485377809  2.949190159943527  -3.8393391288291263  49.816081045634405  8.430002949310074  -0.9562810060424286  6.336291535362778  15.201364543019514  25.624341647138035  14.523408049400992  120.000000
0.48197752808988764  0.000000  0.000000  0.000000  -30.220921351123078  3.0367867807263362  -4.1054011078631  49.58793141126318  8.959684539818856  -0.844694395605641  3.5123389612699754  17.921056841953813  25.883381385987803  13.925940448567092  120.000000
0.5221423220973783  0.000000  0.000000  0.000000  -30.848302285598717  3.163137251075962  -4.30635967691615  49.390179914966495  9.492580763491617  -0.7149461978664221  1.1998136479692123  20.72198731989752  25.628430131175882  13.36289248704017  120.000000
0.5623071161048689  0.000000  0.000000  0.000000  -31.54917228029111  3.3301669214303544  -4.430429276558824  49.22808376334225  10.021680718307378  -0.5677245610718644  -0.7450594161327403  23.572631104461816  25.03987007165508  12.83596311516716  120.000000
0.6024719101123596  0.000000  0.000000  0.000000  -32.31185552778087  3.5383333857423036  -4.468893181869925  49.10486584244486  10.537379853936413  -0.4052399780507077  -2.407127835263193  26.44569721004958  24.234332825945614  12.344531597284446  120.000000
0.6426367041198502  0.000000  0.000000  0.000000  -33.12530209246219  3.787593935509388  -4.41544315099827  49.02276510946905  11.028149739973571  -0.2305783985261081  -3.834155544949974  29.317087837825724  23.28528454498248  11.885879617268248  120.000000
0.6828014981273408  0.000000  0.000000  0.000000  -33.97701747151569  4.075886385150182  -4.264263376722937  48.985243260056954  11.481529494403489  -0.046973329463663276  -5.046997322813552  32.16542594521574  22.233748191021018  11.456273496132194  120.000000
0.7229662921348314  0.000000  0.000000  0.000000  -34.85235258532912  4.399163708881326  -4.010780965751712  48.99723991223332  11.886872289413569  0.14353253395534066  -6.052097538070622  34.97159160019983  21.100170686003597  11.051360246725622  120.000000
0.7631310861423221  0.000000  0.000000  0.000000  -35.73675885067897  4.753335435573989  -3.65369676921136  49.06244719766735  12.237682570261397  0.3400535903602907  -6.85327226768849  37.71895248180045  19.895902832436292  10.665117998372123  120.000000
0.8032958801498127  0.000000  0.000000  0.000000  -36.618193470786395  5.135098569727292  -3.195089169119824  49.18039314589402  12.531829334840596  0.5417833678232369  -7.458418489953712  40.393804798900696  18.62956410612858  10.290234902420647  120.000000
0.8434606741573034  0.000000  0.000000  0.000000  -37.4872765745995  5.541863331984457  -2.639395757364079  49.346016598492966  12.77001508735395  0.7471721338355544  -7.880953809054704  42.98484561209144  17.309983327072754  9.919000793665656  120.000000
0.883625468164794  0.000000  0.000000  0.000000  -38.33630824084602  5.970560254885519  -1.9936255169588153  49.55038337116957  12.954825845691717  0.9541623063300112  -8.139045763338306  45.48225120503043  15.947417100102998  9.545420756938286  120.000000
0.9237902621722847  0.000000  0.000000  0.000000  -39.15780033395343  6.417011609835742  -1.2677992388606816  49.781658990890364  13.090025751660955  1.160529630692405  -8.254707405665092  47.87638564778748  14.554867234559236  9.166840957084139  120.000000
0.9639550561797753  0.000000  0.000000  0.000000  -39.94420406129687  6.876402020143872  -0.474825205929047  50.02624588570614  13.180040674991991  1.3636168187756093  -8.253020074254518  50.15785945586178  13.149032438882877  8.78507614362436  120.000000
1.004119850187266  0.000000  0.000000  0.000000  -40.688645445233036  7.343820005152009  0.36993333611624246  50.26970710073668  13.229542977233184  1.5602477742217553  -8.16061408877606  52.3181010049573  11.750070819126227  8.406382688180845  120.000000
1.0442846441947566  0.000000  0.000000  0.000000  -41.385690785335996  7.814015060832893  1.2490497393660107  50.49807375169088  13.242519183070787  1.7468268927120203  -8.004257696900206  54.349451024285976  10.380924995580568  8.040524299842842  120.000000
1.0844494382022472  0.000000  0.000000  0.000000  -42.03163857912088  8.28102914139412  2.143376547831493  50.69932851414664  13.221546829161754  1.919088993263795  -7.809519880861077  56.244438158291146  9.066021599570616  7.699331965905754  120.000000
1.1246142322097379  0.000000  0.000000  0.000000  -42.624930984681505  8.73814720217994  3.032797689002327  50.86482626180459  13.167434506059438  2.0720104512245987  -7.599424363640013  57.99563337236983  7.829749319518683  7.394991653038828  120.000000
1.1647790262172284  0.000000  0.000000  0.000000  -43.165943666734016  9.178259574148035  3.897442681206532  50.990070245866725  13.07952454964109  2.1998510276372922  -7.393230657898524  59.59593772556266  6.694597916232221  7.138475062632706  120.000000
1.2049438202247191  0.000000  0.000000  0.000000  -43.65633204017288  9.594248415569897  4.719357376665033  51.07492221811487  12.956646583919934  2.2968151196483335  -7.205508458056861  61.03938013295801  5.679666442864156  6.938281399816283  120.000000
1.2451086142322096  0.000000  0.000000  0.000000  -44.09818190066858  9.97962342018566  5.483828012886883  51.12294957815363  12.798039883141895  2.3580271318539983  -7.045773623798039  62.322170915359585  4.799252770592943  6.79965869180763  120.000000
1.2852734082397004  0.000000  0.000000  0.000000  -44.493320446183326  10.32915183110308  6.180230685147184  51.14012606376272  12.604280197581982  2.3802351668893276  -6.918943414413417  63.44336809503501  4.062249322012832  6.723939349669221  120.000000
1.325438202247191  0.000000  0.000000  0.000000  -44.84303832170618  10.639042158709351  6.802417482497353  51.13357617119073  12.378050237253595  2.362334453621244  -6.826160405778986  64.40526069177909  3.4715355491577635  6.707976043753708  120.000000
1.3656029962546816  0.000000  0.000000  0.000000  -45.147975248769555  10.906955552827803  7.348752673120307  51.110247089213885  12.124899498553823  2.3056889873040194  -6.765816517691303  65.21320782590374  3.0238955716049274  6.743634245112066  120.000000
1.4057677902621724  0.000000  0.000000  0.000000  -45.40851030297044  11.131888256143817  7.821888955445309  51.076017432251945  11.853545284754912  2.2139120395491743  -6.734788370907747  65.87529835586551  2.7102198371698605  6.817817791305924  120.000000
1.4459325842696629  0.000000  0.000000  0.000000  -45.625391576235565  11.314024838559547  8.228193343255505  51.03523084000612  11.575481357670384  2.092331931473393  -6.729169167652933  66.40157372958146  2.5163479164575273  6.913362859890139  120.000000
1.4860973782771536  0.000000  0.000000  0.000000  -45.79987910984344  11.454492454960794  8.5765609630926  50.9907449350455  11.30391211473216  1.9472513430943978  -6.74466778579307  66.80278517078229  2.4243039735256864  7.011092394693463  120.000000
1.5262621722846441  0.000000  0.000000  0.000000  -45.93350681483025  11.555024196997215  8.876755963006385  50.94426726269789  11.052236985323757  1.7851817123342546  -6.776424787555397  67.08875353234546  2.4139336673112313  7.0926024789088995  120.000000
1.5664269662921348  0.000000  0.000000  0.000000  -46.02736081906296  11.617570726024187  9.137599416392062  50.89680432830569  10.832386730325974  1.612199418566891  -6.818699487356149  67.26648492580799  2.464515140296224  7.143295604877733  120.000000
1.6065917602996254  0.000000  0.000000  0.000000  -46.08129229559149  11.643895608300983  9.365247103095358  50.84909705473117  10.65337779215776  1.4334473272419972  -6.864596297397085  67.33838673271401  2.556273106336974  7.154994581263642  120.000000
1.646756554307116  0.000000  0.000000  0.000000  -46.09331553672757  11.635212690421074  9.561951221660115  50.801836089488695  10.520355470327972  1.2528064266592283  -6.906096731696976  67.3007524335822  2.6714566817227237  7.127474257897502  120.000000
